HIERARCHY
ROOT joint_Root
{
	OFFSET 0.0 0.0 0.0
	CHANNELS 6 Xposition Yposition Zposition Zrotation Xrotation Yrotation 
	JOINT Hips
	{
		OFFSET -17.1583 93.1646 452.98
		CHANNELS 6 Xposition Yposition Zposition Zrotation Xrotation Yrotation 
		JOINT Spine
		{
			OFFSET 15.7357 0.0 0.0
			CHANNELS 6 Xposition Yposition Zposition Zrotation Xrotation Yrotation 
			JOINT Chest
			{
				OFFSET 8.98455 -0.406207 0.0
				CHANNELS 6 Xposition Yposition Zposition Zrotation Xrotation Yrotation 
				JOINT Neck
				{
					OFFSET 16.3773 0.0 0.0
					CHANNELS 6 Xposition Yposition Zposition Zrotation Xrotation Yrotation 
					JOINT Head
					{
						OFFSET 6.45672 0.0 0.0
						CHANNELS 6 Xposition Yposition Zposition Zrotation Xrotation Yrotation 
						End Site
						{
							OFFSET 0.0 0.0 0.0
						}
					}
				}
				JOINT Shoulder_L
				{
					OFFSET 12.9942 -0.242716 4.98039
					CHANNELS 6 Xposition Yposition Zposition Zrotation Xrotation Yrotation 
					JOINT UpperArm_L
					{
						OFFSET 5.34809 0.0 0.0
						CHANNELS 6 Xposition Yposition Zposition Zrotation Xrotation Yrotation 
						JOINT LowerArm_L
						{
							OFFSET 24.3286 1.87007e-05 0.0
							CHANNELS 6 Xposition Yposition Zposition Zrotation Xrotation Yrotation 
							JOINT Hand_L
							{
								OFFSET 22.2916 0.0 0.0
								CHANNELS 6 Xposition Yposition Zposition Zrotation Xrotation Yrotation 
								End Site
								{
									OFFSET 0.0 0.0 0.0
								}
							}
						}
					}
				}
				JOINT Shoulder_R
				{
					OFFSET 12.9945 -0.242716 -4.98039
					CHANNELS 6 Xposition Yposition Zposition Zrotation Xrotation Yrotation 
					JOINT UpperArm_R
					{
						OFFSET -5.34813 0.0 0.0
						CHANNELS 6 Xposition Yposition Zposition Zrotation Xrotation Yrotation 
						JOINT LowerArm_R
						{
							OFFSET -24.3289 0.000322201 0.0
							CHANNELS 6 Xposition Yposition Zposition Zrotation Xrotation Yrotation 
							JOINT Hand_R
							{
								OFFSET -22.2915 -0.000108084 0.0
								CHANNELS 6 Xposition Yposition Zposition Zrotation Xrotation Yrotation 
								End Site
								{
									OFFSET 0.0 0.0 0.0
								}
							}
						}
					}
				}
			}
		}
		JOINT UpperLeg_L
		{
			OFFSET -2.19248 -6.46944 0.0
			CHANNELS 6 Xposition Yposition Zposition Zrotation Xrotation Yrotation 
			JOINT LowerLeg_L
			{
				OFFSET 39.0811 0.0 -1.23785e-05
				CHANNELS 6 Xposition Yposition Zposition Zrotation Xrotation Yrotation 
				JOINT Foot_L
				{
					OFFSET 40.9854 0.0 -1.26872e-05
					CHANNELS 6 Xposition Yposition Zposition Zrotation Xrotation Yrotation 
					JOINT Toes_L
					{
						OFFSET 11.7543 0.0 0.0
						CHANNELS 6 Xposition Yposition Zposition Zrotation Xrotation Yrotation 
						End Site
						{
							OFFSET 0.0 0.0 0.0
						}
					}
				}
			}
		}
		JOINT UpperLeg_R
		{
			OFFSET -2.19251 6.46944 0.0
			CHANNELS 6 Xposition Yposition Zposition Zrotation Xrotation Yrotation 
			JOINT LowerLeg_R
			{
				OFFSET -39.0811 -0.00228153 -0.0401928
				CHANNELS 6 Xposition Yposition Zposition Zrotation Xrotation Yrotation 
				JOINT Foot_R
				{
					OFFSET -40.9854 0.0 0.0
					CHANNELS 6 Xposition Yposition Zposition Zrotation Xrotation Yrotation 
					JOINT Toes_R
					{
						OFFSET -11.7543 0.0 0.0
						CHANNELS 6 Xposition Yposition Zposition Zrotation Xrotation Yrotation 
						End Site
						{
							OFFSET 0.0 0.0 0.0
						}
					}
				}
			}
		}
	}
}
MOTION
Frames:	6
Frame Time:	0.0333333
0.000000 0.000000 0.000000 0.000000 0.000000 -0.000000 -1.051360 80.380300 471.357000 -80.106500 1.339080 163.246000 15.735700 0.000005 -0.000001 86.031700 80.547800 -79.892000 8.984550 -0.406207 -0.000000 11.184400 -1.113680 12.383600 16.377300 -0.000001 -0.000001 -11.119700 4.913140 -0.170622 6.456720 -0.000001 -0.000000 -26.019500 10.810800 -4.913900 12.994200 -0.242716 4.980390 -92.494100 8.728030 -73.984000 5.348090 -0.000007 -0.000001 -72.070900 1.532340 0.152266 24.328600 0.000019 0.000005 11.117000 33.646400 -19.528900 22.291600 -0.000001 0.000005 -14.313400 5.286610 0.441288 12.994500 -0.242716 -4.980390 89.477800 1.835880 -74.121800 -5.348130 -0.000001 -0.000004 -63.202500 13.256600 -23.627100 -24.328900 0.000322 -0.000009 3.850400 10.540000 -20.213600 -22.291500 -0.000108 -0.000004 -1.285710 5.186090 3.066760 -2.192480 -6.469440 -0.000000 -167.224000 -3.900060 -15.614100 39.081100 -0.000007 -0.000012 0.338417 -0.112946 71.542900 40.985400 -0.000006 -0.000013 -9.985820 11.833700 -34.831300 11.754300 -0.000000 0.000003 0.002060 0.049073 -14.586200 -2.192510 6.469440 -0.000001 -171.014000 -2.729160 145.865000 -39.081100 -0.002282 -0.040193 -0.017349 0.011378 61.020400 -40.985400 0.000008 0.000006 -9.057820 0.691022 -96.006200 -11.754300 -0.000006 -0.000006 -0.001560 0.190739 -8.835400
0.000000 0.000000 0.000000 0.000000 0.000000 -0.000000 -1.152910 81.322200 465.483000 -81.940600 1.710390 164.053000 15.735700 0.000005 -0.000001 90.798900 80.222000 -85.749700 8.984550 -0.406207 -0.000000 11.788400 0.448223 10.048900 16.377300 -0.000001 -0.000001 -10.755400 4.148740 -0.017924 6.456720 -0.000001 -0.000000 -25.825800 8.591080 -4.738670 12.994200 -0.242716 4.980390 -92.548800 8.391900 -73.037900 5.348090 -0.000007 -0.000001 -66.993100 -2.341940 2.862980 24.328600 0.000019 0.000005 8.342530 34.260300 -14.599300 22.291600 -0.000001 0.000005 -11.915100 5.220030 2.177100 12.994500 -0.242716 -4.980390 89.627200 1.345270 -74.511700 -5.348130 -0.000001 -0.000004 -61.369300 14.956600 -24.457400 -24.328900 0.000322 -0.000009 5.258320 7.904690 -33.828300 -22.291500 -0.000108 -0.000004 2.637030 5.245640 1.593870 -2.192480 -6.469440 -0.000000 -169.003000 -2.745960 -25.272400 39.081100 -0.000007 -0.000012 0.438780 -0.061019 82.082100 40.985400 -0.000006 -0.000013 -12.130800 9.900940 -38.542500 11.754300 -0.000000 0.000003 0.001877 0.042284 -14.861500 -2.192510 6.469440 -0.000001 -173.146000 -1.423880 153.104000 -39.081100 -0.002282 -0.040193 -0.016617 0.013159 56.441700 -40.985400 0.000008 0.000006 -9.096710 1.958010 -94.980100 -11.754300 -0.000006 -0.000006 0.001212 0.143892 -10.737900
0.000000 0.000000 0.000000 0.000000 0.000000 -0.000000 -1.430580 83.140400 459.147000 -85.070500 0.742848 164.171000 15.735700 0.000005 -0.000001 92.776700 80.308900 -89.008700 8.984550 -0.406207 -0.000000 11.571000 1.056500 7.426140 16.377300 -0.000001 -0.000001 -10.624800 2.973760 -0.127154 6.456720 -0.000001 -0.000000 -24.480900 6.046250 -4.479920 12.994200 -0.242716 4.980390 -92.496300 8.018850 -72.644600 5.348090 -0.000007 -0.000001 -60.713700 -7.979510 5.618610 24.328600 0.000019 0.000005 6.613910 33.374700 -11.901700 22.291600 -0.000001 0.000005 -7.149050 5.142050 4.091590 12.994500 -0.242716 -4.980390 89.696200 1.085070 -74.357700 -5.348130 -0.000001 -0.000004 -59.333100 14.857700 -23.766700 -24.328900 0.000322 -0.000009 4.577550 4.340280 -46.654100 -22.291500 -0.000108 -0.000004 9.514990 5.379550 -2.162160 -2.192480 -6.469440 -0.000000 -172.108000 -0.537584 -34.315800 39.081100 -0.000007 -0.000012 0.355590 -0.020889 86.636700 40.985400 -0.000006 -0.000013 -10.415300 8.541260 -45.132300 11.754300 -0.000000 0.000003 0.002045 0.048459 -14.611100 -2.192510 6.469440 -0.000001 -176.455000 1.021570 161.437000 -39.081100 -0.002282 -0.040193 -0.016057 0.017416 47.954900 -40.985400 0.000008 0.000006 -9.041230 2.605910 -91.251900 -11.754300 -0.000006 -0.000006 0.002472 0.077049 -13.448400
0.000000 0.000000 0.000000 0.000000 0.000000 -0.000000 -1.926550 85.692100 452.290000 -88.993400 -0.645239 162.724000 15.735700 0.000005 -0.000001 93.399900 81.274500 -91.135000 8.984550 -0.406207 -0.000000 9.638350 1.065810 4.436520 16.377300 -0.000001 -0.000001 -9.767310 1.767800 -0.232536 6.456720 -0.000001 -0.000000 -22.535500 3.549770 -4.152980 12.994200 -0.242716 4.980390 -92.276900 7.143350 -72.268200 5.348090 -0.000007 -0.000001 -54.308200 -11.972500 8.455950 24.328600 0.000019 0.000005 5.494140 30.835800 -10.627200 22.291600 -0.000001 0.000005 -1.329260 5.014610 6.939150 12.994500 -0.242716 -4.980390 89.895700 0.366295 -74.104800 -5.348130 -0.000001 -0.000004 -59.069900 13.436200 -21.281600 -24.328900 0.000322 -0.000009 2.935360 1.935350 -56.701200 -22.291500 -0.000108 -0.000004 14.159300 5.482690 -5.838260 -2.192480 -6.469440 -0.000000 -175.829000 2.271020 -42.188100 39.081100 -0.000007 -0.000012 0.248458 -0.022513 84.820600 40.985400 -0.000006 -0.000013 -9.922150 6.574980 -54.085200 11.754300 -0.000000 0.000003 0.002474 0.089841 -12.933400 -2.192510 6.469440 -0.000001 179.544000 4.068100 169.496000 -39.081100 -0.002282 -0.040193 -0.011445 0.020061 36.293800 -40.985400 0.000008 0.000006 -8.742080 2.022910 -82.726500 -11.754300 -0.000006 -0.000006 -0.002726 -0.037458 -18.096400
0.000000 0.000000 0.000000 0.000000 0.000000 -0.000000 -2.506160 88.541800 445.373000 -92.757500 -1.111130 159.559000 15.735700 0.000005 -0.000001 96.998900 82.943800 -96.365500 8.984550 -0.406207 -0.000000 6.234170 1.706240 1.172400 16.377300 -0.000001 -0.000001 -8.597990 0.597871 -0.337058 6.456720 -0.000001 -0.000000 -20.339100 1.027260 -3.729300 12.994200 -0.242716 4.980390 -91.799300 5.556980 -72.025700 5.348090 -0.000007 -0.000001 -48.833600 -14.945100 10.222400 24.328600 0.000019 0.000005 3.978990 26.213500 -8.947210 22.291600 -0.000001 0.000005 4.833980 4.894850 9.452560 12.994500 -0.242716 -4.980390 90.181000 -0.621313 -73.755800 -5.348130 -0.000001 -0.000004 -59.730100 11.509900 -17.695800 -24.328900 0.000322 -0.000009 0.269017 0.130374 -64.965400 -22.291500 -0.000108 -0.000004 14.225600 5.481320 -5.785670 -2.192480 -6.469440 -0.000000 -179.451000 3.902380 -48.852900 39.081100 -0.000007 -0.000012 0.140860 -0.032920 76.842900 40.985400 -0.000006 -0.000013 -9.171000 5.042860 -61.125500 11.754300 -0.000000 0.000003 0.002421 0.070083 -13.734300 -2.192510 6.469440 -0.000001 176.047000 7.519950 174.241000 -39.081100 -0.002282 -0.040193 0.003738 -0.000894 25.511900 -40.985400 0.000008 0.000006 -5.548670 -0.161537 -68.211000 -11.754300 -0.000006 -0.000006 -0.032129 -0.227058 -25.880500
0.000000 0.000000 0.000000 0.000000 0.000000 -0.000000 -2.909010 91.054600 438.477000 -95.101400 -1.004890 156.255000 15.735700 0.000005 -0.000001 104.810000 84.364200 -105.523000 8.984550 -0.406207 -0.000000 3.153150 2.906860 -1.503710 16.377300 -0.000001 -0.000001 -7.952570 -0.169570 -0.394845 6.456720 -0.000001 -0.000000 -18.801700 -1.508890 -3.048440 12.994200 -0.242716 4.980390 -91.374000 4.196980 -71.854600 5.348090 -0.000007 -0.000001 -43.933700 -18.070800 10.448400 24.328600 0.000019 0.000005 2.565240 21.495800 -6.967300 22.291600 -0.000001 0.000005 10.747700 4.788220 11.498800 12.994500 -0.242716 -4.980390 90.366700 -1.310140 -74.359500 -5.348130 -0.000001 -0.000004 -60.440200 8.936190 -13.481600 -24.328900 0.000322 -0.000009 -4.382710 -1.403800 -72.195200 -22.291500 -0.000108 -0.000004 13.449500 5.450310 -4.652000 -2.192480 -6.469440 -0.000000 178.445000 4.351320 -53.094600 39.081100 -0.000007 -0.000012 0.064240 -0.031033 64.212100 40.985400 -0.000006 -0.000013 -8.374020 5.287950 -65.567500 11.754300 -0.000000 0.000003 0.002275 0.059309 -14.171100 -2.192510 6.469440 -0.000001 174.347000 12.162700 176.640000 -39.081100 -0.002282 -0.040193 0.017222 -0.045681 16.918500 -40.985400 0.000008 0.000006 0.120524 -0.777937 -50.178400 -11.754300 -0.000006 -0.000006 -0.066598 -0.352644 -31.161900
